<svg xmlns="http://www.w3.org/2000/svg" version="1.1" xmlns:xlink="http://www.w3.org/1999/xlink" xmlns:svgjs="http://svgjs.dev/svgjs" viewBox="0 0 15.064951475236676 4.848996885392928"><g transform="matrix(1,0,0,1,4.5597920123257865,0.7699609426964642)"><rect width="15.064951475236676" height="15.064951475236676" x="-4.5597920123257865" y="-5.877938237618338" fill="#ffffff"></rect><g><path d=" M 0.378 0.23549999999999982 L 0.378 0.4079999999999999 L 0.7155 0.4079999999999999 L 0.7155 0.6315 L 0.378 0.6315 L 0.378 0.8219999999999998 L 0.7605000000000001 0.8219999999999998 L 0.7605000000000001 1.0574999999999999 L 0.084 1.0574999999999999 L 0.084 -2.220446049250313e-16 L 0.7605000000000001 -2.220446049250313e-16 L 0.7605000000000001 0.23549999999999982 L 0.378 0.23549999999999982 M 1.58246044921875 1.0574999999999999 L 1.3769604492187502 0.7589999999999999 L 1.20146044921875 1.0574999999999999 L 0.86696044921875 1.0574999999999999 L 1.21046044921875 0.5159999999999999 L 0.85496044921875 -2.220446049250313e-16 L 1.20146044921875 -2.220446049250313e-16 L 1.4009604492187502 0.2909999999999998 L 1.57196044921875 -2.220446049250313e-16 L 1.9064604492187502 -2.220446049250313e-16 L 1.56746044921875 0.5324999999999999 L 1.9289604492187502 1.0574999999999999 L 1.58246044921875 1.0574999999999999 M 2.83573095703125 0.5272499999999999 Q 2.79148095703125 0.6059999999999999 2.7022309570312504 0.6532499999999999 Q 2.61298095703125 0.7004999999999999 2.48398095703125 0.7004999999999999 L 2.3384809570312504 0.7004999999999999 L 2.3384809570312504 1.0574999999999999 L 2.0444809570312503 1.0574999999999999 L 2.0444809570312503 -2.220446049250313e-16 L 2.48398095703125 -2.220446049250313e-16 Q 2.61148095703125 -2.220446049250313e-16 2.7007309570312503 0.04499999999999993 Q 2.78998095703125 0.08999999999999986 2.8349809570312505 0.16949999999999987 Q 2.8799809570312505 0.2489999999999999 2.8799809570312505 0.3524999999999999 Q 2.8799809570312505 0.4484999999999999 2.83573095703125 0.5272499999999999 M 2.57998095703125 0.3524999999999999 Q 2.57998095703125 0.23699999999999988 2.4554809570312504 0.23699999999999988 L 2.3384809570312504 0.23699999999999988 L 2.3384809570312504 0.4664999999999999 L 2.4554809570312504 0.4664999999999999 Q 2.57998095703125 0.4664999999999999 2.57998095703125 0.3524999999999999 M 3.3074604492187505 0.23549999999999982 L 3.3074604492187505 0.4079999999999999 L 3.6449604492187504 0.4079999999999999 L 3.6449604492187504 0.6315 L 3.3074604492187505 0.6315 L 3.3074604492187505 0.8219999999999998 L 3.6899604492187503 0.8219999999999998 L 3.6899604492187503 1.0574999999999999 L 3.0134604492187504 1.0574999999999999 L 3.0134604492187504 -2.220446049250313e-16 L 3.6899604492187503 -2.220446049250313e-16 L 3.6899604492187503 0.23549999999999982 L 3.3074604492187505 0.23549999999999982 M 4.385920898437501 1.0574999999999999 L 4.175920898437501 0.6674999999999999 L 4.144420898437501 0.6674999999999999 L 4.144420898437501 1.0574999999999999 L 3.8504208984375006 1.0574999999999999 L 3.8504208984375006 -2.220446049250313e-16 L 4.313920898437501 -2.220446049250313e-16 Q 4.4414208984375 -2.220446049250313e-16 4.529920898437501 0.0442499999999999 Q 4.618420898437501 0.08849999999999991 4.663420898437501 0.16574999999999984 Q 4.708420898437501 0.24299999999999988 4.708420898437501 0.33899999999999986 Q 4.708420898437501 0.44699999999999984 4.6491708984375 0.5287499999999998 Q 4.589920898437501 0.6104999999999998 4.475920898437501 0.6449999999999998 L 4.714420898437501 1.0574999999999999 L 4.385920898437501 1.0574999999999999 M 4.144420898437501 0.4664999999999999 L 4.289920898437501 0.4664999999999999 Q 4.3499208984375 0.4664999999999999 4.379920898437501 0.43799999999999983 Q 4.4099208984375 0.40949999999999986 4.4099208984375 0.3554999999999998 Q 4.4099208984375 0.3044999999999999 4.379170898437501 0.2752499999999999 Q 4.3484208984375 0.24599999999999989 4.289920898437501 0.24599999999999989 L 4.144420898437501 0.24599999999999989 L 4.144420898437501 0.4664999999999999 M 5.653437011718751 -2.220446049250313e-16 L 5.653437011718751 0.23399999999999987 L 5.371437011718751 0.23399999999999987 L 5.371437011718751 1.0574999999999999 L 5.077437011718751 1.0574999999999999 L 5.077437011718751 0.23399999999999987 L 4.798437011718751 0.23399999999999987 L 4.798437011718751 -2.220446049250313e-16 L 5.653437011718751 -2.220446049250313e-16 M 0.79425 1.4347499999999995 Q 0.9195 1.5014999999999996 0.987 1.6214999999999995 Q 1.0545 1.7414999999999994 1.0545 1.8959999999999995 Q 1.0545 2.0489999999999995 0.9862500000000001 2.1689999999999996 Q 0.918 2.2889999999999997 0.7927500000000001 2.3572499999999996 Q 0.6675 2.4254999999999995 0.5025000000000001 2.4254999999999995 L 0.084 2.4254999999999995 L 0.084 1.3679999999999994 L 0.5025000000000001 1.3679999999999994 Q 0.669 1.3679999999999994 0.79425 1.4347499999999995 M 0.6825 2.0954999999999995 Q 0.756 2.0249999999999995 0.756 1.8959999999999995 Q 0.756 1.7654999999999994 0.6825 1.6942499999999994 Q 0.609 1.6229999999999996 0.48 1.6229999999999996 L 0.378 1.6229999999999996 L 0.378 2.1659999999999995 L 0.48 2.1659999999999995 Q 0.609 2.1659999999999995 0.6825 2.0954999999999995 M 1.4954780273437502 1.3679999999999994 L 1.4954780273437502 2.4254999999999995 L 1.2014780273437502 2.4254999999999995 L 1.2014780273437502 1.3679999999999994 L 1.4954780273437502 1.3679999999999994 M 2.353453125 1.7159999999999995 Q 2.3279531250000005 1.6739999999999995 2.283703125 1.6514999999999995 Q 2.2394531250000003 1.6289999999999996 2.179453125 1.6289999999999996 Q 2.0684531250000004 1.6289999999999996 2.0047031250000003 1.7009999999999996 Q 1.9409531250000003 1.7729999999999997 1.9409531250000003 1.8944999999999994 Q 1.9409531250000003 2.0309999999999997 2.0092031250000004 2.1022499999999997 Q 2.0774531250000003 2.1734999999999998 2.2079531250000004 2.1734999999999998 Q 2.362453125 2.1734999999999998 2.4284531250000003 2.0339999999999994 L 2.1329531250000002 2.0339999999999994 L 2.1329531250000002 1.8224999999999996 L 2.6819531250000006 1.8224999999999996 L 2.6819531250000006 2.1074999999999995 Q 2.647453125 2.1914999999999996 2.5807031250000003 2.2649999999999997 Q 2.5139531250000005 2.3384999999999994 2.411953125 2.3857499999999994 Q 2.3099531250000003 2.4329999999999994 2.179453125 2.4329999999999994 Q 2.0204531250000004 2.4329999999999994 1.8982031250000002 2.3647499999999995 Q 1.7759531250000002 2.2964999999999995 1.7092031250000002 2.1742499999999993 Q 1.6424531250000003 2.0519999999999996 1.6424531250000003 1.8944999999999994 Q 1.6424531250000003 1.7384999999999995 1.7092031250000002 1.6162499999999995 Q 1.7759531250000002 1.4939999999999996 1.8974531250000002 1.4257499999999994 Q 2.0189531250000003 1.3574999999999995 2.177953125 1.3574999999999995 Q 2.377453125 1.3574999999999995 2.5079531250000002 1.4534999999999996 Q 2.6384531250000003 1.5494999999999997 2.669953125 1.7159999999999995 L 2.353453125 1.7159999999999995 M 3.1229816894531255 1.3679999999999994 L 3.1229816894531255 2.4254999999999995 L 2.8289816894531254 2.4254999999999995 L 2.8289816894531254 1.3679999999999994 L 3.1229816894531255 1.3679999999999994 M 4.102456787109375 1.3679999999999994 L 4.102456787109375 1.6019999999999994 L 3.8204567871093755 1.6019999999999994 L 3.8204567871093755 2.4254999999999995 L 3.5264567871093755 2.4254999999999995 L 3.5264567871093755 1.6019999999999994 L 3.2474567871093756 1.6019999999999994 L 3.2474567871093756 1.3679999999999994 L 4.102456787109375 1.3679999999999994 M 4.895962646484375 2.2529999999999997 L 4.520962646484375 2.2529999999999997 L 4.463962646484375 2.4254999999999995 L 4.154962646484375 2.4254999999999995 L 4.540462646484375 1.3679999999999994 L 4.8794626464843756 1.3679999999999994 L 5.263462646484375 2.4254999999999995 L 4.952962646484375 2.4254999999999995 L 4.895962646484375 2.2529999999999997 M 4.822462646484375 2.0279999999999996 L 4.708462646484375 1.6859999999999995 L 4.5959626464843755 2.0279999999999996 L 4.822462646484375 2.0279999999999996 M 5.668469970703125 2.2004999999999995 L 5.996969970703125 2.2004999999999995 L 5.996969970703125 2.4254999999999995 L 5.3744699707031245 2.4254999999999995 L 5.3744699707031245 1.3679999999999994 L 5.668469970703125 1.3679999999999994 L 5.668469970703125 2.2004999999999995 M 7.916980224609374 1.3679999999999994 L 7.657480224609374 2.4254999999999995 L 7.295980224609374 2.4254999999999995 L 7.150480224609375 1.7774999999999994 L 7.001980224609374 2.4254999999999995 L 6.640480224609374 2.4254999999999995 L 6.383980224609374 1.3679999999999994 L 6.7019802246093745 1.3679999999999994 L 6.824980224609374 2.0909999999999993 L 6.991480224609374 1.3679999999999994 L 7.313980224609375 1.3679999999999994 L 7.4759802246093745 2.0849999999999995 L 7.598980224609374 1.3679999999999994 L 7.916980224609374 1.3679999999999994 M 8.35046337890625 1.6034999999999995 L 8.35046337890625 1.7759999999999996 L 8.68796337890625 1.7759999999999996 L 8.68796337890625 1.9994999999999996 L 8.35046337890625 1.9994999999999996 L 8.35046337890625 2.1899999999999995 L 8.73296337890625 2.1899999999999995 L 8.73296337890625 2.4254999999999995 L 8.05646337890625 2.4254999999999995 L 8.05646337890625 1.3679999999999994 L 8.73296337890625 1.3679999999999994 L 8.73296337890625 1.6034999999999995 L 8.35046337890625 1.6034999999999995 M 9.716173828125001 1.9747499999999996 Q 9.770923828125 2.0459999999999994 9.770923828125 2.1374999999999993 Q 9.770923828125 2.2724999999999995 9.677923828125 2.3489999999999998 Q 9.584923828125 2.4254999999999995 9.416923828125 2.4254999999999995 L 8.893423828125 2.4254999999999995 L 8.893423828125 1.3679999999999994 L 9.400423828125 1.3679999999999994 Q 9.562423828125 1.3679999999999994 9.654673828125 1.4399999999999995 Q 9.746923828125 1.5119999999999996 9.746923828125 1.6424999999999996 Q 9.746923828125 1.7354999999999996 9.698173828125 1.7977499999999995 Q 9.649423828125 1.8599999999999994 9.568423828125 1.8824999999999994 Q 9.661423828125 1.9034999999999995 9.716173828125001 1.9747499999999996 M 9.187423828125 1.7879999999999994 L 9.335923828125 1.7879999999999994 Q 9.446923828125 1.7879999999999994 9.446923828125 1.6964999999999995 Q 9.446923828125 1.6019999999999994 9.335923828125 1.6019999999999994 L 9.187423828125 1.6019999999999994 L 9.187423828125 1.7879999999999994 M 9.469423828125 2.0954999999999995 Q 9.469423828125 2.0474999999999994 9.440173828125001 2.0219999999999994 Q 9.410923828125 1.9964999999999995 9.356923828125 1.9964999999999995 L 9.187423828125 1.9964999999999995 L 9.187423828125 2.1884999999999994 L 9.358423828125 2.1884999999999994 Q 9.469423828125 2.1884999999999994 9.469423828125 2.0954999999999995" fill="#004a80" fill-rule="nonzero"></path></g><g><path d=" M 0.17475000000000002 2.782575 L 0.17475000000000002 3.309075 L 0.0465 3.309075 L 0.0465 2.782575 L 0.17475000000000002 2.782575 M 0.6539871826171875 2.782575 L 0.6539871826171875 2.885325 L 0.5144871826171875 2.885325 L 0.5144871826171875 3.309075 L 0.38623718261718754 3.309075 L 0.38623718261718754 2.885325 L 0.24673718261718752 2.885325 L 0.24673718261718752 2.782575 L 0.6539871826171875 2.782575 M 1.0207210693359374 2.885325 L 1.0207210693359374 2.991825 L 1.1924710693359375 2.991825 L 1.1924710693359375 3.090825 L 1.0207210693359374 3.090825 L 1.0207210693359374 3.206325 L 1.2149710693359375 3.206325 L 1.2149710693359375 3.309075 L 0.8924710693359375 3.309075 L 0.8924710693359375 2.782575 L 1.2149710693359375 2.782575 L 1.2149710693359375 2.885325 L 1.0207210693359374 2.885325 M 1.6282327880859375 3.309075 L 1.5209827880859375 3.147825 L 1.4264827880859374 3.309075 L 1.2809827880859375 3.309075 L 1.4497327880859374 3.041325 L 1.2772327880859375 2.782575 L 1.4264827880859374 2.782575 L 1.5322327880859374 2.941575 L 1.6252327880859374 2.782575 L 1.7707327880859376 2.782575 L 1.6034827880859375 3.048075 L 1.7774827880859374 3.309075 L 1.6282327880859375 3.309075 M 2.2297529296875003 3.0357 Q 2.2087529296875 3.073575 2.1652529296875 3.096825 Q 2.1217529296875 3.120075 2.0572529296875 3.120075 L 1.9777529296875 3.120075 L 1.9777529296875 3.309075 L 1.8495029296875 3.309075 L 1.8495029296875 2.782575 L 2.0572529296875 2.782575 Q 2.1202529296875 2.782575 2.1637529296875 2.804325 Q 2.2072529296875 2.826075 2.2290029296875002 2.864325 Q 2.2507529296875 2.902575 2.2507529296875 2.952075 Q 2.2507529296875 2.9978249999999997 2.2297529296875003 3.0357 M 2.1022529296875003 3.000825 Q 2.1202529296875 2.983575 2.1202529296875 2.952075 Q 2.1202529296875 2.920575 2.1022529296875003 2.903325 Q 2.0842529296875 2.886075 2.0475029296875 2.886075 L 1.9777529296875 2.886075 L 1.9777529296875 3.018075 L 2.0475029296875 3.018075 Q 2.0842529296875 3.018075 2.1022529296875003 3.000825 M 2.4532705078125 2.885325 L 2.4532705078125 2.991825 L 2.6250205078124997 2.991825 L 2.6250205078124997 3.090825 L 2.4532705078125 3.090825 L 2.4532705078125 3.206325 L 2.6475205078124997 3.206325 L 2.6475205078124997 3.309075 L 2.3250205078125 3.309075 L 2.3250205078125 2.782575 L 2.6475205078124997 2.782575 L 2.6475205078124997 2.885325 L 2.4532705078125 2.885325 M 3.0067822265624997 3.309075 L 2.8972822265625 3.110325 L 2.8665322265624997 3.110325 L 2.8665322265624997 3.309075 L 2.7382822265624998 3.309075 L 2.7382822265624998 2.782575 L 2.9535322265625 2.782575 Q 3.0157822265624996 2.782575 3.0596572265625 2.804325 Q 3.1035322265625 2.826075 3.1252822265624998 2.86395 Q 3.1470322265624997 2.901825 3.1470322265624997 2.948325 Q 3.1470322265624997 3.000825 3.1174072265625 3.042075 Q 3.0877822265624997 3.083325 3.0300322265624997 3.100575 L 3.1515322265625 3.309075 L 3.0067822265624997 3.309075 M 2.8665322265624997 3.019575 L 2.9460322265624996 3.019575 Q 2.9812822265624996 3.019575 2.9989072265625 3.002325 Q 3.0165322265624996 2.985075 3.0165322265624996 2.953575 Q 3.0165322265624996 2.923575 2.9989072265625 2.906325 Q 2.9812822265624996 2.889075 2.9460322265624996 2.889075 L 2.8665322265624997 2.889075 L 2.8665322265624997 3.019575 M 3.6135153808593747 2.782575 L 3.6135153808593747 2.885325 L 3.474015380859375 2.885325 L 3.474015380859375 3.309075 L 3.345765380859375 3.309075 L 3.345765380859375 2.885325 L 3.2062653808593744 2.885325 L 3.2062653808593744 2.782575 L 3.6135153808593747 2.782575 M 3.9389992675781245 3.295575 Q 3.8932492675781245 3.276825 3.8658742675781244 3.240075 Q 3.838499267578124 3.203325 3.836999267578124 3.151575 L 3.9734992675781244 3.151575 Q 3.976499267578124 3.180825 3.9937492675781243 3.1962 Q 4.010999267578124 3.211575 4.038749267578124 3.211575 Q 4.067249267578124 3.211575 4.083749267578124 3.19845 Q 4.100249267578124 3.185325 4.100249267578124 3.162075 Q 4.100249267578124 3.142575 4.087124267578124 3.129825 Q 4.073999267578125 3.117075 4.054874267578124 3.108825 Q 4.035749267578124 3.100575 4.000499267578125 3.090075 Q 3.9494992675781244 3.074325 3.917249267578124 3.058575 Q 3.884999267578124 3.042825 3.861749267578124 3.012075 Q 3.838499267578124 2.981325 3.838499267578124 2.931825 Q 3.838499267578124 2.858325 3.8917492675781244 2.8167 Q 3.9449992675781242 2.775075 4.030499267578124 2.775075 Q 4.117499267578125 2.775075 4.170749267578124 2.8167 Q 4.223999267578124 2.858325 4.227749267578124 2.932575 L 4.088999267578124 2.932575 Q 4.087499267578124 2.907075 4.0702492675781246 2.89245 Q 4.052999267578124 2.877825 4.025999267578125 2.877825 Q 4.002749267578125 2.877825 3.988499267578124 2.8902 Q 3.9742492675781245 2.902575 3.9742492675781245 2.925825 Q 3.9742492675781245 2.9513249999999998 3.9982492675781245 2.965575 Q 4.0222492675781245 2.979825 4.073249267578125 2.996325 Q 4.124249267578124 3.013575 4.156124267578124 3.029325 Q 4.187999267578125 3.0450749999999998 4.211249267578125 3.075075 Q 4.234499267578125 3.105075 4.234499267578125 3.152325 Q 4.234499267578125 3.197325 4.211624267578125 3.234075 Q 4.188749267578125 3.270825 4.145249267578125 3.292575 Q 4.101749267578124 3.314325 4.042499267578124 3.314325 Q 3.9847492675781244 3.314325 3.9389992675781245 3.295575 M 4.433616943359374 3.2798249999999998 Q 4.371741943359375 3.245325 4.335366943359374 3.18345 Q 4.298991943359375 3.121575 4.298991943359375 3.044325 Q 4.298991943359375 2.967075 4.335366943359374 2.905575 Q 4.371741943359375 2.844075 4.433616943359374 2.809575 Q 4.495491943359375 2.775075 4.569741943359374 2.775075 Q 4.643991943359374 2.775075 4.705866943359375 2.809575 Q 4.767741943359375 2.844075 4.803366943359374 2.905575 Q 4.838991943359375 2.967075 4.838991943359375 3.044325 Q 4.838991943359375 3.121575 4.802991943359375 3.18345 Q 4.766991943359375 3.245325 4.705491943359375 3.2798249999999998 Q 4.643991943359374 3.314325 4.569741943359374 3.314325 Q 4.495491943359375 3.314325 4.433616943359374 3.2798249999999998 M 4.6706169433593745 3.155325 Q 4.708491943359375 3.113325 4.708491943359375 3.044325 Q 4.708491943359375 2.9745749999999997 4.6706169433593745 2.93295 Q 4.632741943359375 2.891325 4.569741943359374 2.891325 Q 4.5059919433593745 2.891325 4.468116943359375 2.932575 Q 4.430241943359374 2.973825 4.430241943359374 3.044325 Q 4.430241943359374 3.114075 4.468116943359375 3.1557 Q 4.5059919433593745 3.197325 4.569741943359374 3.197325 Q 4.632741943359375 3.197325 4.6706169433593745 3.155325 M 5.046 3.210075 L 5.2139999999999995 3.210075 L 5.2139999999999995 3.309075 L 4.91775 3.309075 L 4.91775 2.782575 L 5.046 2.782575 L 5.046 3.210075 M 5.408992309570313 2.782575 L 5.408992309570313 3.097575 Q 5.408992309570313 3.144825 5.432242309570313 3.170325 Q 5.455492309570313 3.195825 5.500492309570313 3.195825 Q 5.545492309570313 3.195825 5.569492309570313 3.170325 Q 5.593492309570313 3.144825 5.593492309570313 3.097575 L 5.593492309570313 2.782575 L 5.721742309570312 2.782575 L 5.721742309570312 3.096825 Q 5.721742309570312 3.167325 5.691742309570313 3.216075 Q 5.661742309570313 3.264825 5.611117309570313 3.289575 Q 5.5604923095703125 3.314325 5.498242309570313 3.314325 Q 5.435992309570313 3.314325 5.386867309570313 3.28995 Q 5.337742309570313 3.265575 5.309242309570313 3.21645 Q 5.2807423095703125 3.167325 5.2807423095703125 3.096825 L 5.2807423095703125 2.782575 L 5.408992309570313 2.782575 M 6.1980051269531256 2.782575 L 6.1980051269531256 2.885325 L 6.058505126953126 2.885325 L 6.058505126953126 3.309075 L 5.930255126953125 3.309075 L 5.930255126953125 2.885325 L 5.790755126953125 2.885325 L 5.790755126953125 2.782575 L 6.1980051269531256 2.782575 M 6.398257690429689 2.782575 L 6.398257690429689 3.309075 L 6.270007690429688 3.309075 L 6.270007690429688 2.782575 L 6.398257690429689 2.782575 M 6.611619873046876 3.2798249999999998 Q 6.549744873046876 3.245325 6.513369873046876 3.18345 Q 6.476994873046876 3.121575 6.476994873046876 3.044325 Q 6.476994873046876 2.967075 6.513369873046876 2.905575 Q 6.549744873046876 2.844075 6.611619873046876 2.809575 Q 6.673494873046876 2.775075 6.747744873046876 2.775075 Q 6.821994873046876 2.775075 6.883869873046876 2.809575 Q 6.945744873046876 2.844075 6.981369873046876 2.905575 Q 7.016994873046876 2.967075 7.016994873046876 3.044325 Q 7.016994873046876 3.121575 6.9809948730468765 3.18345 Q 6.944994873046876 3.245325 6.883494873046876 3.2798249999999998 Q 6.821994873046876 3.314325 6.747744873046876 3.314325 Q 6.673494873046876 3.314325 6.611619873046876 3.2798249999999998 M 6.848619873046876 3.155325 Q 6.8864948730468765 3.113325 6.8864948730468765 3.044325 Q 6.8864948730468765 2.9745749999999997 6.848619873046876 2.93295 Q 6.810744873046876 2.891325 6.747744873046876 2.891325 Q 6.683994873046876 2.891325 6.646119873046876 2.932575 Q 6.608244873046876 2.973825 6.608244873046876 3.044325 Q 6.608244873046876 3.114075 6.646119873046876 3.1557 Q 6.683994873046876 3.197325 6.747744873046876 3.197325 Q 6.810744873046876 3.197325 6.848619873046876 3.155325 M 7.566752929687501 3.309075 L 7.438502929687501 3.309075 L 7.224002929687502 2.984325 L 7.224002929687502 3.309075 L 7.095752929687501 3.309075 L 7.095752929687501 2.782575 L 7.224002929687502 2.782575 L 7.438502929687501 3.108825 L 7.438502929687501 2.782575 L 7.566752929687501 2.782575 L 7.566752929687501 3.309075" fill="#ff6b00" fill-rule="nonzero"></path></g><g clip-path="url(#SvgjsClipPath1002)"><path d=" M -3.870587139258644 0.34784785322569717 L -0.3999999999999999 0.34784785322569717 L -0.3999999999999999 2.961227146774303 L -3.870587139258644 2.961227146774303 Z" fill="#ff6b00" transform="matrix(1,0,0,1,0,0)" fill-rule="nonzero" mask="url(#maskedText)"></path></g></g><defs><clipPath id="SvgjsClipPath1002"><path d=" M -3.8705871392586446 -0.08075606962932236 h 3.4705871392586447 v 3.4705871392586447 h -3.4705871392586447 Z"></path></clipPath><mask id="maskedText"><path d=" M -0.45581318064915033 1.9173332363121143 C -0.46190473114910446 1.9344971777493065 -0.4678747977359534 1.951678474031228 -0.47269944457067536 1.9651284786963683 C -0.4995126796773097 1.976582676217649 -0.5277663668964694 1.962421122918611 -0.5452079858493288 1.986752615228968 L -0.6090738144528345 1.9858848729925076 C -0.6121976865040928 1.9459687301153168 -0.6153215585553515 1.9058790387908338 -0.6183065918487762 1.8665182509449776 C -0.6161719459470834 1.8637935403224912 -0.6146100099214542 1.8603572810661066 -0.6126142027775945 1.8599234099478765 C -0.5995633595412255 1.857354892927953 -0.5860786451866269 1.856625989449326 -0.5733054794659256 1.8529814720561912 C -0.5638307779351894 1.8491961760773505 -0.5547940330734642 1.8443955872100466 -0.5463534056014576 1.83866372515459 C -0.5277663668964698 1.8253525592472832 -0.5148370075732056 1.810045586196117 -0.5223690101856846 1.7841348030154012 C -0.5241298449212257 1.778881685320037 -0.5240625665685044 1.7731874901942755 -0.522178106893664 1.7679774425725034 C -0.5203045179174328 1.7627832814825541 -0.5167175662677659 1.7583822264721265 -0.5120081678823443 1.7554993092121993 C -0.4965450012286148 1.7487656294572642 -0.4961111301103842 1.736027173426022 -0.4988011310434124 1.7220044588848173 C -0.49767306613601336 1.7056909048393565 -0.49668383998644794 1.6892211571913331 -0.49553842023432093 1.6729076031458727 C -0.49640616247078206 1.6606030182328602 -0.4971003562599501 1.6482810784751187 -0.4978119048938474 1.6359764935621064 C -0.4978119048938474 1.6203571333058142 -0.4934211291773569 1.6016139009982637 -0.5002242283112084 1.5898820259613156 C -0.5098449481998149 1.5770961016884515 -0.5237510355195223 1.5682053245496221 -0.5393941128650437 1.5648389850170608 C -0.5628157034898309 1.5602840263689601 -0.586529030199622 1.557384377712835 -0.6103580729627955 1.5561615626524539 C -0.618912182815289 1.550274169307516 -0.6278204838432124 1.5449187560675672 -0.6370324693115981 1.5401256861226604 C -0.6732173205720082 1.5235170997168033 -0.6736511916902388 1.5232394222011356 -0.6709438359124817 1.4705501136032437 L -0.6470982792545406 1.4950030898267053 C -0.630816851050104 1.47538859808564 -0.623552667685507 1.4498222007798836 -0.6270881432817572 1.4245771299155572 C -0.6197123342718416 1.395941636112355 -0.6412844062702545 1.3742480802008383 -0.6453975044710778 1.3438423922352563 L -0.6102018793602331 1.2765576592200958 C -0.5924652280469775 1.275846110586198 -0.5727501244345907 1.2808616607129406 -0.5609661848634548 1.260816815050699 C -0.5426568236741351 1.2361902903799453 -0.5438022434262626 1.2072771190610756 -0.5433683723080325 1.1787978188604364 C -0.5260135275788191 1.1657643304687972 -0.5308902389477281 1.145823613874931 -0.5279052056543034 1.128260511008967 C -0.5194849569497579 1.1236763575795634 -0.5125079281811717 1.1168375472964882 -0.5077562309236865 1.1085106977071222 C -0.5029993269934581 1.100154693409983 -0.500639304803959 1.090648548051265 -0.5009357769451057 1.0810379785007773 C -0.5049100363880954 1.0433779654383841 -0.48673951395660886 1.016616794865937 -0.46886402388551884 0.9882763334231315 C -0.4596328087732311 0.9738327118318111 -0.4628940798681911 0.954738495582287 -0.4763960264979974 0.9441776729662001 L -0.49342112917735603 0.9155595340077272 C -0.49156416079133036 0.909120886613189 -0.4864791912856705 0.9012417871061261 -0.4884576435848009 0.8964692048055924 C -0.49207410987639433 0.8881654940277891 -0.49754137296615175 0.8807986389850213 -0.5044414555804067 0.8749318424966385 C -0.5113085047636021 0.8690774232535807 -0.519432633786236 0.8648847075445314 -0.5281828831699702 0.8626793221178138 C -0.5381272091998093 0.8545225450950836 -0.5476203092666889 0.8455153806806217 -0.5581199903278633 0.838382539496915 C -0.5745410736469783 0.8295744256597353 -0.5872391602019875 0.8151450618985361 -0.5938883253147731 0.7977374931410972 C -0.5917536794130793 0.7961582022707389 -0.5880744523304857 0.794873943760777 -0.5876405812122552 0.7928607817721882 C -0.574450899218053 0.7252983712413603 -0.574450899218053 0.7252983712413603 -0.5960229712164655 0.6704744167417751 C -0.6009864568090202 0.658030993070929 -0.605238393767678 0.6454313757975201 -0.6102018793602331 0.6329705972819448 C -0.5859050967393338 0.6087779437294213 -0.5903479369900126 0.5807325146470124 -0.5992856820255574 0.5520970208438102 C -0.6016980054429188 0.544512953697144 -0.6086399433346039 0.53621733791658 -0.6069391685511412 0.5300563680377092 C -0.5987129721494941 0.5005531319980463 -0.5883521298461538 0.471501121921343 -0.5785639974188768 0.4398111754457993 L -0.6448421494397429 0.4060212927580206 C -0.6859993854102879 0.38795173962592816 -0.729156292372692 0.3748322263322816 -0.7734068391937563 0.3669381824278319 C -0.7918887007503876 0.35113667701645407 -0.8171061524081282 0.34574972786636704 -0.8404312495379789 0.35262043552623085 L -0.9219990197652814 0.35262043552623085 C -0.9513807718918401 0.3517700481344994 -0.9828798150753624 0.34317939999353875 -1.0094153726663297 0.35133617701626907 C -1.0563949373483101 0.3656539239178702 -1.1043637281798564 0.36306805205321735 -1.1513259380171081 0.3705132804420499 C -1.182800147186434 0.36798064766747524 -1.2144764928441318 0.3702511856529152 -1.245267712536341 0.3772469601969847 C -1.277773336714157 0.38354676883368927 -1.312812768222439 0.3772469601969847 -1.3466026509102178 0.38311289771545887 C -1.350715749111041 0.38011050957730497 -1.3551065248275322 0.3742445720588308 -1.359080784270522 0.3744354753508522 C -1.3932929919329462 0.3730999927924047 -1.4259572052930845 0.38874685896551525 -1.4463582984137362 0.4162432963035273 C -1.4513711939698821 0.4153821913363683 -1.4564654310266103 0.41509109207598377 -1.4615437875517985 0.41537555406706667 C -1.4728938560047038 0.4010578071654655 -1.483966246941942 0.41280703704714306 -1.4951774766370136 0.41537555406706667 C -1.537748910757774 0.41537555406706667 -1.5803203448785348 0.416382135061361 -1.6238810051488604 0.41723252245309256 C -1.6453987168826714 0.41480918354990676 -1.667029044542964 0.42070102653200137 -1.6843452841854398 0.4337022701011161 C -1.6927963360988936 0.4405758358179082 -1.7044503913718623 0.44196756647659324 -1.714282391343333 0.4372773681153341 C -1.742657562475597 0.42655207407268014 -1.7642296344740092 0.4419978858816801 -1.789498288399744 0.4524455024086666 C -1.8147669423254786 0.46289311893565305 -1.8471163729007325 0.4424317569999104 -1.8716561233478402 0.46676324931026764 L -1.920909172689348 0.4810809962118688 C -1.9507074410894074 0.4693491211749205 -1.980366870731633 0.45975189203966543 -2.0076833963354153 0.4872419660907395 L -2.0076833963354153 0.5179253315719888 C -2.0076833963354153 0.5195046224423473 -2.0119353332940726 0.5209277197101428 -2.0142088179535995 0.5223681718226676 C -2.0699872889132913 0.4785645437261328 -2.0699872889132913 0.4785645437261328 -2.1172445311109396 0.4988870669040418 C -2.1523501772462232 0.4974901101147226 -2.1874249870508677 0.5023379436025482 -2.2208355992996145 0.5132048138056429 C -2.2568581215268404 0.5217074702458597 -2.293373425111848 0.5279672365747181 -2.330171121093658 0.5319480461131931 L -2.465139748552752 0.5551341186714225 C -2.5049866118742097 0.5595085724596095 -2.544584084605553 0.5659150681940837 -2.5837774671216587 0.5743285769419333 C -2.6040932143925852 0.5808361426202235 -2.6253042668597453 0.5841155985510932 -2.646636714730866 0.5840472899902921 C -2.7107628660053105 0.5808019340259292 -2.767235530754171 0.6046995552180561 -2.8223545176141527 0.633473887779092 C -2.855693174338972 0.633473887779092 -2.8898995733002515 0.6506551840610132 -2.9216936488441707 0.6282674343603278 C -2.949218432584703 0.6339945331209682 -2.979867088376494 0.6272608533660335 -3.0035738062765995 0.6487287962960705 C -3.0081819282506674 0.6489394410090028 -3.01273013238636 0.6498584475074632 -3.0170585206311986 0.651453506918557 L -3.0503451128218297 0.651453506918557 C -3.0637705900721097 0.6496659997930482 -3.0773737786353466 0.6496659997930482 -3.0907992558856265 0.6514535069185571 C -3.1308195278311928 0.6617622846877098 -3.1698332187824643 0.6558963471692356 -3.209992329485864 0.6531889913914783 C -3.2448828068072415 0.6502167868329469 -3.2793384552210547 0.6434013198916336 -3.312733010282808 0.6328664682135694 C -3.3280353834288463 0.6276232065647394 -3.3436288350541385 0.6232714108863318 -3.35943489744912 0.6198329798219304 C -3.366042907694353 0.6181291488570665 -3.373024396106771 0.6186039144160627 -3.379340904353529 0.6211866577108088 C -3.3856866172864657 0.6237717569961316 -3.3910426185908484 0.6283131111100633 -3.3946305225599662 0.6341507267235313 C -3.4088094307037333 0.6398778254841717 -3.4106663990897594 0.6532410559256661 -3.41307872250712 0.665927447422721 C -3.425659329314204 0.6686210446953633 -3.4377285536402415 0.6733081221035332 -3.4488297026492996 0.6798113232060918 C -3.4779275967607646 0.7042585403680286 -3.4943693162689295 0.7405822304771001 -3.4935357826717532 0.7785777445600455 C -3.491788321360906 0.8077322870540792 -3.4959196270588713 0.8369406183386935 -3.5056841739822024 0.8644668711249228 C -3.509319559822021 0.880082793986212 -3.5107969066195497 0.8961233934044404 -3.510074949698694 0.9121406295960721 C -3.548076206500934 0.9321574645407293 -3.5906049275887892 0.9420154714389405 -3.633537315102318 0.9407587685545451 C -3.6439680452228433 0.9401673589026303 -3.654430232544337 0.9410377474625982 -3.6646198420123395 0.9433446404191979 C -3.6954767559408808 0.9517964498023247 -3.7261254117326716 0.9617060661427057 -3.761598714359184 0.972622263477381 C -3.7712480080286266 0.9819244602522395 -3.7825980764815323 1.0012404024358539 -3.798772791769159 1.0068286624386606 C -3.8366757726577614 1.0196712475382785 -3.8495877771362963 1.0520206781135326 -3.870587139258644 1.080361139556338 C -3.8639228788826263 1.097837468198656 -3.858091651053611 1.1127105701315918 -3.852416616827158 1.1277398656670905 L -3.852416616827158 1.144435226296594 C -3.855019283581104 1.1577300482508865 -3.848696439988111 1.1711766289586512 -3.8367972565708657 1.1776523991083085 C -3.834957254983469 1.1827454406014701 -3.83242891501634 1.187562716520364 -3.8292826088031164 1.1919701460099097 C -3.78653868289951 1.2340738273441727 -3.758537913968911 1.2888579404692586 -3.749450323048735 1.3481637485728304 C -3.749450323048735 1.3526065888235093 -3.74292490143055 1.356320525595561 -3.7395233518636246 1.36031213988328 L -3.7383779321114963 1.3922450541850329 C -3.743775288822282 1.408836285746161 -3.7493114842909008 1.425444872152018 -3.7547088410016864 1.4420534585578753 C -3.765347360820694 1.4752532765248605 -3.7779816877835612 1.507897739460511 -3.786069045427375 1.5422603320243535 C -3.7938201114082624 1.5659351839624185 -3.789264407417805 1.5919157130051385 -3.7739206541169255 1.6115408721833742 C -3.7602899369539964 1.6286464337017819 -3.7527754478401674 1.6498214087168495 -3.752574195099993 1.6716927640148276 C -3.752574195099993 1.6784264437697622 -3.7438967727353862 1.6844312200460703 -3.7393671582610617 1.690783093216962 C -3.739801785254614 1.6959804761318569 -3.739801785254614 1.70120507055836 -3.7393671582610617 1.7064024534732543 C -3.7446663389723382 1.7100604128737094 -3.7487133597365405 1.7152585323582685 -3.750960194540176 1.7212929102509196 C -3.7532168877711514 1.7273411337534579 -3.7535800651314952 1.7339328028436989 -3.752001485223929 1.7401923361610332 L -3.765347360820694 1.7688104751195057 C -3.745217322193581 1.8069227799540533 -3.7193716485398163 1.8417289894692117 -3.688708366496488 1.8720197367241378 C -3.6691321016419347 1.9092458786683009 -3.637615703613683 1.9401548571310303 -3.6367653162219518 1.986561711936947 C -3.6367653162219518 1.9988662968499593 -3.6181782775169644 2.0107543654894706 -3.608390145089688 2.022763918042086 C -3.6035654982549663 2.0292199202813537 -3.6000251099302067 2.0383832782983786 -3.594193882101191 2.0416633439521994 C -3.5705593148487123 2.055332926437066 -3.552025166978585 2.0763346383727423 -3.541400444434924 2.101485493733798 L -3.566669098360659 2.11910066113395 L -3.5907923325342654 2.136854667291935 C -3.600448661502202 2.1503040030018057 -3.6172129152642776 2.156673462645611 -3.633363766655026 2.1530293825795623 C -3.6548901972472576 2.1524811810900566 -3.675895596657348 2.1596944722071285 -3.6925437871816436 2.173351905757471 C -3.711379509462385 2.187968898730354 -3.729074762732993 2.20399905767681 -3.745476063605745 2.2213033417442882 C -3.750757407359328 2.230345798701498 -3.7542898508053497 2.240301401813536 -3.755888970443273 2.250650384181388 C -3.7733479442408617 2.2522296750517463 -3.793219241455811 2.247786834801068 -3.803562728914422 2.268543229097207 C -3.812517828794696 2.2917293016554363 -3.809098924383041 2.306897435948769 -3.7883945946210895 2.334491639068218 C -3.7825633667920737 2.350527515598012 -3.7767494938077872 2.3665633921278046 -3.770796782065667 2.3827381074154315 C -3.7566005190771703 2.4086488905961474 -3.720467732350948 2.4001970812130207 -3.705091339920865 2.4256739932755056 C -3.6897149474907818 2.4511509053379914 -3.6564977746790674 2.4454238065773506 -3.6269945386394045 2.4598803922367853 C -3.629979571932829 2.502833632941589 -3.5969185927236778 2.5160059600910616 -3.5625733550045644 2.5280155126436776 C -3.5483770920160675 2.5330310627704202 -3.5341981838723004 2.5168563474827934 -3.536541087910744 2.4982519539330763 C -3.537826004549494 2.492958405240982 -3.5396822968653106 2.4878201415580166 -3.5420772833793635 2.482927626037181 C -3.5147899687470545 2.4537205993095537 -3.497109767494577 2.416852019308241 -3.4914184916147892 2.377288686170459 C -3.4901515879495566 2.3681253281534342 -3.481491520429679 2.3598297123728695 -3.476371841234561 2.3511002254740756 C -3.4705579682502745 2.356115775600818 -3.465316805142052 2.3654179723756767 -3.4590169965053477 2.3654179723756767 C -3.4184240146837173 2.371145071136317 -3.4083408498960446 2.397472370590534 -3.4110482056738016 2.433553092782569 L -3.491088749564934 2.4908240803889727 C -3.473907453283013 2.5062872470427022 -3.4607177712888104 2.518157960837484 -3.4485173154441737 2.529612158358765 C -3.4349501062143077 2.5195977744685654 -3.4207214024023034 2.5105120455062955 -3.4059285264786836 2.502417116668088 C -3.3885736817494703 2.494538017161025 -3.3718783211199668 2.5210215102178046 -3.3517293463893503 2.5048467949301774 C -3.349993861916429 2.4984081475356392 -3.347893925704194 2.4905464028733055 -3.345915473405064 2.483101174484473 C -3.334107216986089 2.477877522066922 -3.3217887080375466 2.4738934906081154 -3.3091579122685895 2.4712131058449622 C -3.29723513393962 2.469928847335 -3.2844619682189187 2.485530852746563 -3.2728342222503457 2.473642784107052 C -3.2586379592618493 2.4593250372054505 -3.2689988015651896 2.4450246451485786 -3.2728342222503457 2.429422639737016 C -3.273875404916448 2.42201381256006 -3.273875404916448 2.4144957817474744 -3.2728342222503457 2.4070869545705182 L -3.2484159557163426 2.4009259846916473 C -3.2404674368303628 2.4281210263823247 -3.2404674368303628 2.4281210263823247 -3.223164656635337 2.4165453449479393 L -3.198468712585666 2.400370629660313 C -3.1986860776648145 2.4082601469937552 -3.2000721859641916 2.416073820782648 -3.20258181078649 2.4235567022185416 C -3.212548863714338 2.4394652446377965 -3.212876329877213 2.4595877061973423 -3.2034321981782212 2.4758121396982036 C -3.2007816824048607 2.483254183753085 -3.1994371467675715 2.491098286859714 -3.1994579387352315 2.4989982122564323 C -3.2060112344866476 2.4986509559285013 -3.2125639778718855 2.499691824913882 -3.2186871066952 2.502052664928774 C -3.224820649896682 2.5044244232978974 -3.230389575454119 2.5080542749882015 -3.235035370430119 2.512708539592511 C -3.2444933227146553 2.522165848265537 -3.249532882981349 2.5351679137536065 -3.2489192462134895 2.5485289391136074 C -3.2711855120010704 2.5571195872545687 -3.293903003751611 2.5649986867616317 -3.3158915920235246 2.5747173998099906 C -3.337880180295438 2.5844361128583504 -3.3679561262111646 2.5813122408070917 -3.381319356652659 2.6094270892684177 C -3.368546190931958 2.615588059147288 -3.3529268306756657 2.6185904472854418 -3.34555102166575 2.6278926440603003 C -3.335513880884533 2.6426007090307566 -3.3271820793503677 2.658402602366693 -3.3207162388582456 2.6749936926553852 C -3.306919250174709 2.672797031824693 -3.29286160019167 2.672797031824693 -3.2790646115081334 2.6749936926553852 C -3.2583919135290884 2.683273960610923 -3.2347425104349044 2.6775236636605237 -3.220179623341912 2.660675945753785 C -3.207545296379045 2.64908290947467 -3.1950498081740113 2.659825558362053 -3.182571674813707 2.6631056240158744 L -3.1196950723597667 2.679280339303501 C -3.0991295813556485 2.667131947993052 -3.0788244130224687 2.6545323307196433 -3.0581200832605173 2.642835165372153 C -3.0468750806050053 2.6348058258587415 -3.0322529314998987 2.6332330564455457 -3.0195576182722053 2.638687357481871 C -2.9762746355175467 2.6593049130201765 -2.948593658174451 2.6386873574818708 -2.927021586176039 2.602467796532003 C -2.9257546825108065 2.6003331506303096 -2.922630810459548 2.599326569636015 -2.9203573258000213 2.5979034723682197 C -2.9145352918859477 2.601317802460489 -2.909901218777215 2.60643648452177 -2.9070808695821726 2.612568316164405 C -2.9042384746333267 2.618712851038566 -2.903324799299195 2.6255744922895956 -2.9044602880280617 2.6322487100873326 C -2.905744546538023 2.6474168443806647 -2.9074453213214864 2.662602333518727 -2.908868418589282 2.676902725575599 C -2.8789139565866595 2.6933724732236226 -2.850677624212229 2.7075340265226604 -2.8218685819617346 2.70182428260675 C -2.777735211815345 2.693146860242143 -2.735094358315668 2.6770589191781617 -2.691603117424259 2.6641642695443566 C -2.689769795210735 2.679454532180512 -2.691767706357137 2.694960708242138 -2.697416990408545 2.709286865840311 C -2.703017541606976 2.7236514754366645 -2.71214294434104 2.7363757126041097 -2.723952547999513 2.7462873948029944 C -2.753907010002135 2.770584177423893 -2.7949165080972667 2.765898369347005 -2.827699809790751 2.7826457945106964 C -2.830250971965945 2.802690640172938 -2.832663295383306 2.8208264529149654 -2.8350756188006665 2.8399167821171005 C -2.826444712571156 2.84715115020464 -2.81691987973331 2.8532463432943826 -2.8067351573578607 2.858052594859129 C -2.796796726616938 2.8622774412038554 -2.785616925696276 2.862532092224826 -2.775496436845277 2.858764143493026 C -2.7405958440948286 2.8368623294447586 -2.708246413519575 2.855761755354872 -2.67502924070786 2.861922725233743 C -2.673024463752167 2.8878217184746218 -2.66019624639149 2.9116761540971776 -2.6396947768391814 2.927628167378545 L -2.578675142771267 2.927628167378545 C -2.5382383545522 2.9266215863842504 -2.499068469998365 2.928478554770277 -2.4627274251353923 2.9509530786946074 C -2.4385634801373754 2.963327281957344 -2.4102510696879094 2.964736582745342 -2.384977720748516 2.9548232090692226 C -2.3673799081930933 2.9496167556504584 -2.3487755146433766 2.947516819438224 -2.330622347056619 2.944080560181839 C -2.322951505686307 2.941512043161916 -2.3141525994085956 2.9352122345252116 -2.3076271777904114 2.9371386222901537 C -2.2802412328077124 2.944878883039383 -2.2558229662737093 2.93613204129586 -2.229287408682742 2.9306999748956155 C -2.192547202390997 2.923115907748949 -2.1572127385223183 2.9046677078017957 -2.117886660365921 2.9116096456934812 C -2.109938141479941 2.925910037750353 -2.105738269055472 2.942102107882709 -2.089511489233657 2.950397723663273 L -2.024934111996254 2.9379369451476984 C -2.0238322327902734 2.9226163531253695 -2.01812107059781 2.9079875499671317 -2.008551138571876 2.8959729305924595 C -1.9990308010418794 2.8840055296596923 -1.986086625469959 2.8752267389303725 -1.9714464805408178 2.870808405735101 C -1.9422035671720932 2.8609334990841786 -1.9216380761679752 2.825425486768207 -1.8846722568947507 2.8404547823037065 C -1.8641067658906327 2.8261543902468347 -1.8603754742738519 2.7956619280576067 -1.8313234641971485 2.7901257325889874 C -1.8264091833079663 2.795682115993869 -1.8207223758054119 2.800503920916385 -1.8144372002756237 2.8044434794905886 C -1.7860446742986307 2.818761226392189 -1.768030345469707 2.811593675519024 -1.7576695031663667 2.782819342957988 C -1.7551183409911724 2.775096437053488 -1.7558298896250704 2.7647876592843357 -1.7510052427903486 2.759789464002322 C -1.7427861401477645 2.7533166967969844 -1.733710088648095 2.748013572754707 -1.7240358140811511 2.7440312649881973 C -1.7049454848790162 2.7387380373457866 -1.6854386394033805 2.734156358337274 -1.667268116971894 2.727717710942736 C -1.6584498491830453 2.7237765985008515 -1.6500388638028793 2.718981116165927 -1.642155656648722 2.713399964041135 C -1.6139551032537582 2.715944450815999 -1.5856473323304945 2.709855586683264 -1.5609870478501915 2.695940990243547 C -1.5120290308690798 2.6988045396238665 -1.4670452733309585 2.681623243341945 -1.4217664834324408 2.6673054964403438 C -1.4126972850228192 2.664798373314285 -1.4042861415138541 2.660338097918334 -1.3971226039169584 2.6542372983592464 C -1.3899419276508205 2.6481118434056583 -1.3841648197363354 2.6405116317640616 -1.3801842754612457 2.6319536777269366 C -1.3750819511108567 2.631103290335205 -1.3697713686237178 2.6305305804591415 -1.364443431291849 2.6300967093409104 C -1.3297337418334219 2.6361014856172185 -1.2988768279048808 2.6183648343039625 -1.2659546874535623 2.6134881229350535 C -1.2218125143336152 2.6170077774655005 -1.1774182351356424 2.611407541047712 -1.1355330293135244 2.597035730131759 L -1.0867138510902468 2.597035730131759 C -1.0507594129082227 2.600806153410721 -1.0158664046094106 2.5834509568038677 -0.9971802071322342 2.5525031985565967 C -0.9860127396808638 2.53911701385009 -0.9732951521870281 2.527104340734062 -0.9592945810883617 2.516717508724959 L -0.9267889569105452 2.575723980804285 C -0.9213565466092644 2.5773539780151085 -0.9157131814061183 2.578172704573078 -0.9100415317468542 2.5781536590663743 C -0.8748459066360099 2.572565399063568 -0.8631834509779783 2.5337773210937757 -0.8321356337574151 2.523468543324623 C -0.8110236986247665 2.5203037090744362 -0.790089078246476 2.5160519073706 -0.7694152249060369 2.5107300872933798 C -0.7511058637167176 2.506287247042702 -0.7329700509746897 2.5014278905185217 -0.7147821736984739 2.4964123403917795 C -0.6929120910091973 2.4935490926330113 -0.6736671891955703 2.480554122180175 -0.6628391234239381 2.4613381991940395 C -0.6672298991404291 2.4380132878779763 -0.6729049333668824 2.4144801184251623 -0.6758899666603067 2.3897668195307626 C -0.6801654517384916 2.3731714129736288 -0.6730746053013505 2.355733287640144 -0.6584309928627183 2.346830933670689 C -0.6492155703115055 2.34238809342001 -0.635314339683406 2.340392286276151 -0.6316177577560835 2.333224735402985 C -0.6237312952257277 2.3146967621354984 -0.6174150675178165 2.2955390861831955 -0.6127356866906997 2.2759537477965806 L -0.669503383799956 2.228713860443662 L -0.6421174388172575 2.200095721485189 C -0.6370151144668688 2.1990891404908948 -0.6279211758287611 2.200095721485189 -0.6272096271948628 2.1966247525393463 C -0.6154430424684558 2.1649868705979904 -0.604787167804719 2.1330713111409665 -0.5937321317122102 2.10099955808138 C -0.5846100972672175 2.105734408435063 -0.575113872711261 2.1097105171275023 -0.565339605735216 2.1128876267208914 C -0.543351017463304 2.118319693121135 -0.5312894003765005 2.1076811733021277 -0.5304390129847687 2.084252132917689 C -0.5290014657094959 2.071095285080334 -0.5343413292394148 2.058108370962893 -0.5446179211285362 2.049768056440742 C -0.5446179211285362 2.0099733974766556 -0.5446179211285362 2.0099733974766556 -0.5138304265789122 2.0003761683414005 L -0.45237692139276664 2.0050966861077466 C -0.44505800948987995 1.9867092515027271 -0.43876018081871093 1.9679316409017522 -0.43351220517211253 1.9488496343403654 C -0.4327555217987684 1.9452853289900625 -0.4327555217987684 1.9416018714243701 -0.43351220517211253 1.938037566074066 C -0.43426106006534804 1.9344793389038317 -0.4357318218864594 1.9311125347350213 -0.4378335615096862 1.9281453045784145 C -0.43994889468263887 1.925199984525482 -0.44265623777168894 1.922729090614515 -0.4457820803956656 1.9208909794816031 C -0.44883801090276254 1.9190120632715268 -0.45225629269529577 1.917799696891822 -0.45581318064915033 1.9173332363121143 Z" fill="#ffffff" transform="matrix(1,0,0,1,0,0)" fill-rule="nonzero"></path><path d=" M -0.4182052321209446 2.057057091227012 C -0.4213801006463447 2.056434041761606 -0.42465459453154875 2.0565348866819835 -0.42778510641146994 2.0573521235874086 C -0.434142466107553 2.059033136469324 -0.4393988694301889 2.0634985276414666 -0.44208549846834266 2.069500514897858 C -0.44343690931640056 2.0724668735068397 -0.4441013337309667 2.0757000101670076 -0.44402924107801445 2.0789589052752793 C -0.4446596808777943 2.0842565645433506 -0.44308887777285033 2.0895808708230046 -0.43968380470370816 2.0936879531761514 C -0.436278731634566 2.0977950355292982 -0.43133765394768186 2.1003251365245643 -0.4260149122490908 2.1006871708762542 C -0.4195794940819928 2.1019824478443256 -0.4129044491475873 2.1002769578945784 -0.4078790995070629 2.0960534273335547 C -0.4028352538778277 2.0918049178069817 -0.3999626454442873 2.0855183002373483 -0.4000520645341874 2.078924195585821 C -0.39968307818385584 2.073624493211554 -0.40136711274022474 2.068385965052813 -0.40475522745580417 2.064294061479094 C -0.408130584218354 2.0602290056984582 -0.41295311912203525 2.057634170788994 -0.4182052321209442 2.057057091227012 Z" fill="#ffffff" transform="matrix(1,0,0,1,0,0)" fill-rule="nonzero"></path><path d=" M -0.4311345914442093 1.8348803690036213 C -0.4288611067846819 1.8348803690036213 -0.4240364599499604 1.8270186243412876 -0.4248868473416918 1.8248666235948652 C -0.4262972750207217 1.8197702928297763 -0.42962437136431086 1.8154170826605944 -0.43417168927182104 1.812718232284416 C -0.4386818216774224 1.8100493650108676 -0.44405549142119893 1.8092461165787153 -0.449148920273132 1.8104794573143472 C -0.4507108562987612 1.8124926193029358 -0.4538347283500199 1.8149222975650259 -0.4534182120765191 1.8165015884353841 C -0.4526785726818372 1.8218105669634659 -0.44997180227836076 1.8266480673870693 -0.4458341449298526 1.8300557221689 C -0.4417277240212081 1.8334776261016823 -0.43647011943680347 1.835203262553234 -0.4311345914442093 1.834880369003621 Z" fill="#ffffff" transform="matrix(1,0,0,1,0,0)" fill-rule="nonzero"></path><path d=" M -2.949284518143082 1.1964998730410872 L -2.556680837892585 1.1964998730410872 L -2.556680837892585 1.3273677664579195 L -2.8053298353845664 1.3273677664579195 L -2.8053298353845664 1.5694733692790592 L -2.6077193163251495 1.5694733692790592 L -2.6077193163251495 1.7003412626958916 L -2.8053298353845664 1.7003412626958916 L -2.8053298353845664 1.981707233542081 L -2.556680837892585 1.981707233542081 L -2.556680837892585 2.1125751269589133 L -2.949284518143082 2.1125751269589133 L -2.949284518143082 1.1964998730410872" fill="NA" transform="matrix(1,0,0,1,0,0)" fill-rule="nonzero"></path><path d=" M -2.474265376205886 1.1964998730410872 L -2.254407315265608 1.1964998730410872 C -2.1828662001977395 1.1964998730410872 -2.1292103638968385 1.2156938307422225 -2.093439806362904 1.2540817461444935 C -2.05766924882897 1.2924696615467641 -2.039783970062003 1.3487428557160022 -2.039783970062003 1.4229013286522072 L -2.039783970062003 1.8861736713477935 C -2.039783970062003 1.9603321442839983 -2.05766924882897 2.0166053384532363 -2.093439806362904 2.054993253855507 C -2.1292103638968385 2.093381169257778 -2.1828662001977395 2.1125751269589133 -2.254407315265608 2.1125751269589133 L -2.474265376205886 2.1125751269589133 L -2.474265376205886 1.1964998730410872 M -2.2570246731339445 1.981707233542081 C -2.2334684523189146 1.981707233542081 -2.2153650603962527 1.9747276125598499 -2.202714497365959 1.9607683705953878 C -2.190063934335665 1.9468091286309257 -2.1837386528205185 1.9241253604386748 -2.1837386528205185 1.892717066018635 L -2.1837386528205185 1.4163579339813654 C -2.1837386528205185 1.3849496395613257 -2.190063934335665 1.3622658713690747 -2.202714497365959 1.3483066294046127 C -2.2153650603962527 1.3343473874401506 -2.2334684523189146 1.3273677664579195 -2.2570246731339445 1.3273677664579195 L -2.3303106934473705 1.3273677664579195 L -2.3303106934473705 1.981707233542081 L -2.2570246731339445 1.981707233542081" fill="NA" transform="matrix(1,0,0,1,0,0)" fill-rule="nonzero"></path><path d=" M -1.9769597131812935 1.1964998730410872 L -1.8382397461594513 1.1964998730410872 L -1.7741144783852034 1.900569139623645 L -1.7714971205168668 1.900569139623645 L -1.703445815940114 1.1964998730410872 L -1.546404343839915 1.1964998730410872 L -1.4783530392631623 1.900569139623645 L -1.4757356813948257 1.900569139623645 L -1.4116104136205778 1.1964998730410872 L -1.2872859148745872 1.1964998730410872 L -1.380202119200538 2.1125751269589133 L -1.5594911331815984 2.1125751269589133 L -1.6249250798900146 1.494878670031465 L -1.6275424377583512 1.494878670031465 L -1.6929763844667673 2.1125751269589133 L -1.8840435088553424 2.1125751269589133 L -1.9769597131812935 1.1964998730410872" fill="NA" transform="matrix(1,0,0,1,0,0)" fill-rule="nonzero"></path></mask></defs></svg>